# xmcd CD database file
#
# Track frame offsets:
#	150
#	43627
#	80830
#	121164
#
# Disc length: 2186 seconds
#
# Revision: 0
# Processed by: cddbd v1.5.2PL0 Copyright (c) Steve Scherf et al.
# Submitted via: CDex 1.70beta3
#
DISCID=2c088804
DTITLE=Pepper Adams - Twelfth And Pingree (Enja 2074)
DYEAR=1975
DGENRE=Jazz
TTITLE0=Twelfth And Pingree 
TTITLE1=A Child Is Born
TTITLE2=Well, You Needn't
TTITLE3=Bossa Nouveau
EXTD=YEAR: 1975
EXTT0=
EXTT1=
EXTT2=
EXTT3=
PLAYORDER=
